<svg version="1.1" xmlns="http://www.w3.org/2000/svg" xmlns:xlink="http://www.w3.org/1999/xlink" width="800" height="800"><defs/><g transform="scale(2,2)"><g id="background-ffeffd06"><rect fill="white" stroke="none" x="0" y="0" width="400" height="400" class="dcg-svg-background"/></g><g id="background-images-ffeffd06"/><g id="graphpaper-ffeffd06"><g id="axis-ffeffd06"><g id="yaxis-ffeffd06"><title>Y axis</title><g><path fill="none" stroke="rgb(0,0,0)" class="dcg-svg-axis-line" paint-order="fill stroke markers" d=" M 25 0 L 25 400" stroke-opacity="0.9" stroke-miterlimit="10" stroke-width="1.5" stroke-dasharray=""/></g></g><g id="xaxis-ffeffd06"><title>X axis</title><g><path fill="none" stroke="rgb(0,0,0)" class="dcg-svg-axis-line" paint-order="fill stroke markers" d=" M 0 222 L 400 222" stroke-opacity="0.9" stroke-miterlimit="10" stroke-width="1.5" stroke-dasharray=""/></g></g><g><g><path fill="none" stroke="rgb(0,0,0)" class="dcg-svg-tickmark" paint-order="fill stroke markers" d="" stroke-opacity="0.9" stroke-miterlimit="2" stroke-width="1.5" stroke-dasharray=""/></g></g></g></g><g id="expressions-ffeffd06"><g id="sketch-ffeffd06"><title>Expression 1</title><path fill="#c74440" stroke="none" paint-order="stroke fill markers" d="" fill-opacity="0.4"/><g><path fill="none" stroke="#c74440" class="dcg-svg-curve" paint-order="fill stroke markers" d=" M 0 246.6982115116758 L 0 246.6982115116758 L 14.2578125 232.6736872658308 L 54.78515625 192.5706343944439 L 66.01562500000001 181.99429110887576 L 75.87890625 173.09163665540106 L 84.86328125 165.36922110369426 L 93.359375 158.46100658036065 L 101.46484375 152.27206333616797 L 109.1796875 146.78147877272806 L 116.40625 142.0203401464205 L 123.33984375000001 137.82187935292598 L 129.8828125 134.20941578163263 L 136.1328125 131.08935697752622 L 142.1875 128.38597247757923 L 148.046875 126.07781167647431 L 153.7109375 124.14172216861647 L 159.27734375 122.52745490174823 L 164.74609375 121.2245777963019 L 170.1171875 120.22165705417399 L 175.390625 119.50640708563861 L 180.56640625 119.06583340981229 L 185.74218750000003 118.88537453005415 L 190.91796875 118.96548797219873 L 196.09375 119.30597062089089 L 201.26953125 119.905959234553 L 206.54296875 120.78258751368185 L 211.9140625 121.9483548004838 L 217.28515625000003 123.3863640069066 L 222.85156250000003 125.15973569145837 L 228.51562500000003 127.25465393551679 L 234.375 129.72335457985912 L 240.42968750000003 132.58805932634357 L 246.67968750000003 135.8691824390832 L 253.22265625 139.64367687309135 L 260.05859375 143.94183453315333 L 267.28515625 148.85887256276342 L 274.90234375 154.43064580697018 L 283.0078125 160.76416894359144 L 291.50390625 167.80854880554915 L 300.5859375 175.74416389495505 L 310.44921875 184.76617534354 L 321.58203125 195.3528982201047 L 335.35156250000006 208.85966667492087 L 379.98046875000006 252.95059638354417 L 390.91796875 263.1722968235737 L 400 271.307882240523" stroke-linecap="round" stroke-linejoin="round" stroke-miterlimit="10" stroke-width="2.5" stroke-opacity="0.9" stroke-dasharray=""/></g></g><g id="sketch-ffeffd06"><title>Expression 2</title><path fill="#2d70b3" stroke="none" paint-order="stroke fill markers" d="" fill-opacity="0.4"/><g><path fill="none" stroke="#2d70b3" class="dcg-svg-curve" paint-order="fill stroke markers" d=" M 0 90.20552889247915 L 0 90.20552889247915 L 5.761718750000001 97.37197656907438 L 11.621093750000002 104.25933906735048 L 17.675781250000004 110.97557940199641 L 23.828125 117.40670557529268 L 30.175781250000004 123.65059145006717 L 36.71875 129.69545314977228 L 43.5546875 135.61311807014982 L 50.58593750000001 141.3028513966022 L 57.91015625 146.8299692433335 L 65.52734375 152.1752740940382 L 73.2421875 157.20003227440634 L 81.0546875 161.9182247236964 L 88.96484375000001 166.34365664177088 L 97.0703125 170.5385167606781 L 105.37109375000001 174.5049660882275 L 113.86718750000001 178.2462501030787 L 122.65625000000001 181.80447854403903 L 131.73828125 185.17522841380278 L 141.11328125 188.3559777164891 L 150.78125000000003 191.34597229637706 L 160.83984375000003 194.17221091683103 L 171.38671875 196.85310033199474 L 182.421875 199.37864316705617 L 194.04296875000003 201.76085054851515 L 206.25000000000003 203.9894101456817 L 219.140625 206.0724285454289 L 232.91015625000003 208.02700577646533 L 247.55859374999997 209.83804726323118 L 263.28125000000006 211.51512468563018 L 280.27343750000006 213.06119816235062 L 298.73046875 214.47483267918403 L 318.9453125 215.75792829171883 L 341.40625 216.91675473466452 L 366.50390625000006 217.94467650897025 L 395.01953125000006 218.84511326846837 L 400 218.97831902697087" stroke-linecap="round" stroke-linejoin="round" stroke-miterlimit="10" stroke-width="2.5" stroke-opacity="0.9" stroke-dasharray=""/></g></g><g id="sketch-ffeffd06"><title>Expression 3</title><path fill="#6042a6" stroke="none" paint-order="stroke fill markers" d="" fill-opacity="0.4"/><g><path fill="none" stroke="#6042a6" class="dcg-svg-curve" paint-order="fill stroke markers" d=" M 0 90.20552889247915 L 0 90.20552889247915 L 5.761718750000001 97.37197656907438 L 11.621093750000002 104.25933906735048 L 17.675781250000004 110.97557940199641 L 23.828125 117.40670557529268 L 30.175781250000004 123.65059145006717 L 36.71875 129.69545314977228 L 43.5546875 135.61311807014982 L 50.58593750000001 141.3028513966022 L 57.91015625 146.8299692433335 L 65.52734375 152.1752740940382 L 73.2421875 157.20003227440634 L 81.0546875 161.9182247236964 L 85.83984375 164.55470290536311 L 94.23828125 157.77021821700748 L 102.24609375000001 151.69773810178089 L 109.96093750000001 146.2484874553251 L 117.1875 141.52879398976097 L 124.0234375 137.42830524928513 L 130.56640625000003 133.85219583211125 L 136.81640625 130.76821691041113 L 142.87109375 128.10091821677014 L 148.73046875 125.82862205910686 L 154.39453125 123.92797256681325 L 159.9609375 122.34916718058878 L 165.4296875 121.08163954706293 L 170.80078125 120.11383142423159 L 176.07421875 119.43334264451369 L 181.25 119.02707397319136 L 186.42578125000003 118.88101836654897 L 191.6015625 118.99554612619437 L 196.77734375 119.37036688454418 L 201.95312500000003 120.00453034100605 L 207.22656250000003 120.91572068431759 L 212.59765625000003 122.11632931388351 L 218.06640625000003 123.61798378411015 L 223.63281250000003 125.43140478527869 L 229.296875 127.56625654576999 L 235.15625 130.0752707134542 L 241.21093749999997 132.9804300563555 L 247.46093750000003 136.30188340405044 L 254.00390625 140.11688238078017 L 260.83984375 144.45530798326922 L 268.06640625 149.41244257200003 L 275.78125 155.09789485516782 L 283.88671875 161.4744109706719 L 292.3828125 168.55911239991053 L 301.46484375 176.53215535839692 L 311.42578125000006 185.6793013053856 L 322.75390625 196.4874187741432 L 336.91406250000006 210.41141917436113 L 343.75 217.02371978208123 L 369.140625 218.03880672493887 L 398.04687500000006 218.92684941200068 L 400 218.97831902697087" stroke-linecap="round" stroke-linejoin="round" stroke-miterlimit="10" stroke-width="2.5" stroke-opacity="0.9" stroke-dasharray=""/></g></g><g id="sketch-ffeffd06"><title>Expression 7</title><path fill="#fa7e19" stroke="none" paint-order="stroke fill markers" d="" fill-opacity="0.4"/><g><path fill="none" stroke="#fa7e19" class="dcg-svg-curve" paint-order="fill stroke markers" d=" M 0 90.20552889247915 L 0 90.20552889247915 L 5.761718750000001 97.37197656907438 L 11.621093750000002 104.25933906735048 L 17.675781250000004 110.97557940199641 L 23.828125 117.40670557529268 L 30.175781250000004 123.65059145006717 L 36.71875 129.69545314977228 L 43.5546875 135.61311807014982 L 50.58593750000001 141.3028513966022 L 57.91015625 146.8299692433335 L 65.4296875 152.107871932347 L 68.26171875 153.80468595493355 L 70.99609375 155.09524772361328 L 73.6328125 156.03265463935668 L 76.26953125000001 156.68421944600345 L 78.90625 157.06522320820943 L 81.640625 157.1907188025277 L 84.37500000000001 157.0581525252404 L 87.3046875 156.6484385607431 L 90.33203125 155.9548990348786 L 93.5546875 154.93897778539204 L 97.0703125 153.53382296725565 L 100.87890625000001 151.6990009419826 L 105.078125 149.34687784276682 L 109.86328125000001 146.31168162886954 L 118.5546875 140.6797456354322 L 125.29296875 136.7072805400307 L 131.73828125 133.2488643440651 L 137.98828125 130.22705315128616 L 143.9453125 127.66134244833256 L 149.8046875 125.44560748810642 L 155.46875 123.60081871281591 L 160.9375 122.1020930786658 L 166.30859375000003 120.90440025471787 L 171.58203125 119.9961028195903 L 176.85546875000003 119.35537788246393 L 182.03125 118.98833684801724 L 187.20703125 118.88160709029489 L 192.3828125 119.03545920624163 L 197.55859375 119.4495031273949 L 202.734375 120.1226891088437 L 208.00781250000003 121.07332950944357 L 213.37890625000003 122.31369169448334 L 218.84765625000003 123.85526820736106 L 224.41406250000003 125.70863375104892 L 230.078125 127.88329568255801 L 235.9375 130.4324784101724 L 241.99218750000003 133.37792449798354 L 248.33984375000003 136.79456578501436 L 254.8828125 140.65486878624415 L 261.81640625 145.1034191922877 L 269.140625 150.18041064476378 L 276.85546875 155.92002654436092 L 285.05859375 162.42823746669788 L 293.65234375 169.65010062920186 L 302.83203125 177.76445785580614 L 321.19140625 194.176944403537 L 327.05078125 198.7755291248709 L 332.71484375 202.81263697750867 L 337.98828125 206.1837647537433 L 342.96875 209.00611399185465 L 347.75390625000006 211.37470872675922 L 352.34375000000006 213.32294715420153 L 356.73828125 214.8870338395694 L 361.03515625 216.1298100663286 L 365.33203125 217.0898337988656 L 369.53125 217.75736451902438 L 373.73046875 218.1616592568898 L 378.90625 218.36713931267832 L 400 218.97831902697087" stroke-linecap="round" stroke-linejoin="round" stroke-miterlimit="10" stroke-width="2.5" stroke-opacity="0.9" stroke-dasharray=""/></g></g></g><g id="labels-ffeffd06"/></g></svg>