<svg version="1.1" xmlns="http://www.w3.org/2000/svg" xmlns:xlink="http://www.w3.org/1999/xlink" width="800" height="800"><defs/><g transform="scale(2,2)"><g id="background-5dcc4b3e"><rect fill="white" stroke="none" x="0" y="0" width="400" height="400" class="dcg-svg-background"/></g><g id="background-images-5dcc4b3e"/><g id="graphpaper-5dcc4b3e"><g id="axis-5dcc4b3e"><g id="yaxis-5dcc4b3e"><title>Y axis</title><g><path fill="none" stroke="rgb(0,0,0)" class="dcg-svg-axis-line" paint-order="fill stroke markers" d=" M 25 0 L 25 400" stroke-opacity="0.9" stroke-miterlimit="10" stroke-width="1.5" stroke-dasharray=""/></g></g><g id="xaxis-5dcc4b3e"><title>X axis</title><g><path fill="none" stroke="rgb(0,0,0)" class="dcg-svg-axis-line" paint-order="fill stroke markers" d=" M 0 222 L 400 222" stroke-opacity="0.9" stroke-miterlimit="10" stroke-width="1.5" stroke-dasharray=""/></g></g><g><g><path fill="none" stroke="rgb(0,0,0)" class="dcg-svg-tickmark" paint-order="fill stroke markers" d="" stroke-opacity="0.9" stroke-miterlimit="2" stroke-width="1.5" stroke-dasharray=""/></g></g></g></g><g id="expressions-5dcc4b3e"><g id="sketch-5dcc4b3e"><title>Expression 1</title><path fill="#c74440" stroke="none" paint-order="stroke fill markers" d="" fill-opacity="0.4"/><g><path fill="none" stroke="#c74440" class="dcg-svg-curve" paint-order="fill stroke markers" d=" M 0 246.6982115116758 L 0 246.6982115116758 L 14.2578125 232.6736872658308 L 54.78515625 192.5706343944439 L 66.01562500000001 181.99429110887576 L 75.87890625 173.09163665540106 L 84.86328125 165.36922110369426 L 93.359375 158.46100658036065 L 101.46484375 152.27206333616797 L 109.1796875 146.78147877272806 L 116.40625 142.0203401464205 L 123.33984375000001 137.82187935292598 L 129.8828125 134.20941578163263 L 136.1328125 131.08935697752622 L 142.1875 128.38597247757923 L 148.046875 126.07781167647431 L 153.7109375 124.14172216861647 L 159.27734375 122.52745490174823 L 164.74609375 121.2245777963019 L 170.1171875 120.22165705417399 L 175.390625 119.50640708563861 L 180.56640625 119.06583340981229 L 185.74218750000003 118.88537453005415 L 190.91796875 118.96548797219873 L 196.09375 119.30597062089089 L 201.26953125 119.905959234553 L 206.54296875 120.78258751368185 L 211.9140625 121.9483548004838 L 217.28515625000003 123.3863640069066 L 222.85156250000003 125.15973569145837 L 228.51562500000003 127.25465393551679 L 234.375 129.72335457985912 L 240.42968750000003 132.58805932634357 L 246.67968750000003 135.8691824390832 L 253.22265625 139.64367687309135 L 260.05859375 143.94183453315333 L 267.28515625 148.85887256276342 L 274.90234375 154.43064580697018 L 283.0078125 160.76416894359144 L 291.50390625 167.80854880554915 L 300.5859375 175.74416389495505 L 310.44921875 184.76617534354 L 321.58203125 195.3528982201047 L 335.35156250000006 208.85966667492087 L 379.98046875000006 252.95059638354417 L 390.91796875 263.1722968235737 L 400 271.307882240523" stroke-linecap="round" stroke-linejoin="round" stroke-miterlimit="10" stroke-width="2.5" stroke-opacity="0.9" stroke-dasharray=""/></g></g><g id="sketch-5dcc4b3e"><title>Expression 2</title><path fill="#2d70b3" stroke="none" paint-order="stroke fill markers" d="" fill-opacity="0.4"/><g><path fill="none" stroke="#2d70b3" class="dcg-svg-curve" paint-order="fill stroke markers" d=" M 0 90.20552889247915 L 0 90.20552889247915 L 5.761718750000001 97.37197656907438 L 11.621093750000002 104.25933906735048 L 17.675781250000004 110.97557940199641 L 23.828125 117.40670557529268 L 30.175781250000004 123.65059145006717 L 36.71875 129.69545314977228 L 43.5546875 135.61311807014982 L 50.58593750000001 141.3028513966022 L 57.91015625 146.8299692433335 L 65.52734375 152.1752740940382 L 73.2421875 157.20003227440634 L 81.0546875 161.9182247236964 L 88.96484375000001 166.34365664177088 L 97.0703125 170.5385167606781 L 105.37109375000001 174.5049660882275 L 113.86718750000001 178.2462501030787 L 122.65625000000001 181.80447854403903 L 131.73828125 185.17522841380278 L 141.11328125 188.3559777164891 L 150.78125000000003 191.34597229637706 L 160.83984375000003 194.17221091683103 L 171.38671875 196.85310033199474 L 182.421875 199.37864316705617 L 194.04296875000003 201.76085054851515 L 206.25000000000003 203.9894101456817 L 219.140625 206.0724285454289 L 232.91015625000003 208.02700577646533 L 247.55859374999997 209.83804726323118 L 263.28125000000006 211.51512468563018 L 280.27343750000006 213.06119816235062 L 298.73046875 214.47483267918403 L 318.9453125 215.75792829171883 L 341.40625 216.91675473466452 L 366.50390625000006 217.94467650897025 L 395.01953125000006 218.84511326846837 L 400 218.97831902697087" stroke-linecap="round" stroke-linejoin="round" stroke-miterlimit="10" stroke-width="2.5" stroke-opacity="0.9" stroke-dasharray=""/></g></g><g id="sketch-5dcc4b3e"><title>Expression 3</title><path fill="#6042a6" stroke="none" paint-order="stroke fill markers" d="" fill-opacity="0.4"/><g><path fill="none" stroke="#6042a6" class="dcg-svg-curve" paint-order="fill stroke markers" d=" M 0 246.6982115116758 L 0 246.6982115116758 L 14.2578125 232.6736872658308 L 54.78515625 192.5706343944439 L 66.01562500000001 181.99429110887576 L 75.87890625 173.09163665540106 L 84.86328125 165.36922110369426 L 85.78126885751787 164.60341366150115 L 93.84765625000001 168.91018630161238 L 102.05078125000001 172.95671853328892 L 110.44921875000001 176.7782125724987 L 119.14062500000001 180.41759066946295 L 128.02734375 183.83381749488976 L 137.20703125 187.0658288421755 L 146.77734375 190.14171352473195 L 156.73828125 193.05305436011557 L 167.08984375 195.79398223806177 L 177.92968750000003 198.38315380493012 L 189.2578125 200.81244488456014 L 201.171875 203.09436464431093 L 213.76953125000003 205.2361326327068 L 227.1484375 207.24086637763565 L 241.40625000000003 209.10871552309064 L 256.73828125 210.8482290939513 L 273.2421875 212.45228009818692 L 291.11328125 213.92201194019898 L 310.64453125000006 215.26138774122552 L 332.12890625 216.46858302215193 L 343.65234375 217.12858647197356 L 372.265625 245.52073226827855 L 384.47265625 257.1983194025379 L 394.82421875000006 266.7149434242655 L 400 271.307882240523" stroke-linecap="round" stroke-linejoin="round" stroke-miterlimit="10" stroke-width="2.5" stroke-opacity="0.9" stroke-dasharray=""/></g></g><g id="sketch-5dcc4b3e"><title>Expression 7</title><path fill="#fa7e19" stroke="none" paint-order="stroke fill markers" d="" fill-opacity="0.4"/><g><path fill="none" stroke="#fa7e19" class="dcg-svg-curve" paint-order="fill stroke markers" d=" M 0 246.6982115116758 L 0 246.6982115116758 L 14.2578125 232.6736872658308 L 54.78515625 192.5706343944439 L 65.82031250000001 182.1831902030374 L 68.84765625 179.67181256981272 L 71.97265625 177.49060447605564 L 75 175.7558784517914 L 77.9296875 174.413242484132 L 80.859375 173.38374198566464 L 83.7890625 172.65027112758307 L 86.71875 172.19591680859585 L 89.6484375 172.00396685134837 L 92.67578125000001 172.06376212423478 L 95.80078125 172.3818600814716 L 99.12109375 172.98367385391128 L 102.63671875 173.89217848021593 L 106.44531250000003 175.16088492356516 L 110.54687500000001 176.82083753659109 L 119.23828125000001 180.45675934833093 L 128.125 183.8697418133243 L 137.3046875 187.09868374798864 L 146.875 190.1716472900378 L 156.8359375 193.08022325075208 L 167.18750000000003 195.81854809370896 L 178.02734375 198.4052607472158 L 189.35546875 200.83224475057054 L 201.26953125 203.11199739128645 L 213.8671875 205.2517313615465 L 227.24609375 207.2545612285498 L 241.50390625000006 209.12063649417397 L 256.8359375 210.85849806436514 L 273.33984375 212.46102571553396 L 291.2109375 213.9293617662009 L 317.578125 216.03836082322806 L 322.07031250000006 216.8672731106169 L 326.5625 217.967825595239 L 331.0546875 219.34986659409319 L 335.546875 221.02095807142194 L 340.13671875 223.03231371316423 L 344.82421875 225.40653149968176 L 349.60937500000006 228.1640186712193 L 354.58984375 231.38903110658035 L 359.765625 235.1166559154695 L 365.234375 239.45843052481004 L 370.80078125 244.28326646203053 L 376.5625 249.67816168050174 L 387.98828125 260.4756847150322 L 397.94921875000006 269.50245330376083 L 400 271.307882240523" stroke-linecap="round" stroke-linejoin="round" stroke-miterlimit="10" stroke-width="2.5" stroke-opacity="0.9" stroke-dasharray=""/></g></g></g><g id="labels-5dcc4b3e"/></g></svg>