<svg version="1.1" xmlns="http://www.w3.org/2000/svg" xmlns:xlink="http://www.w3.org/1999/xlink" width="800" height="800"><defs/><g transform="scale(2,2)"><g id="background-2c792e8e"><rect fill="white" stroke="none" x="0" y="0" width="400" height="400" class="dcg-svg-background"/></g><g id="background-images-2c792e8e"/><g id="graphpaper-2c792e8e"><g id="axis-2c792e8e"><g id="yaxis-2c792e8e"><title>Y axis</title><g><path fill="none" stroke="rgb(0,0,0)" class="dcg-svg-axis-line" paint-order="fill stroke markers" d=" M 25 0 L 25 400" stroke-opacity="0.9" stroke-miterlimit="10" stroke-width="1.5" stroke-dasharray=""/></g></g><g id="xaxis-2c792e8e"><title>X axis</title><g><path fill="none" stroke="rgb(0,0,0)" class="dcg-svg-axis-line" paint-order="fill stroke markers" d=" M 0 222 L 400 222" stroke-opacity="0.9" stroke-miterlimit="10" stroke-width="1.5" stroke-dasharray=""/></g></g><g><g><path fill="none" stroke="rgb(0,0,0)" class="dcg-svg-tickmark" paint-order="fill stroke markers" d="" stroke-opacity="0.9" stroke-miterlimit="2" stroke-width="1.5" stroke-dasharray=""/></g></g></g></g><g id="expressions-2c792e8e"><g id="sketch-2c792e8e"><title>Expression 1</title><path fill="#c74440" stroke="none" paint-order="stroke fill markers" d="" fill-opacity="0.4"/><g><path fill="none" stroke="#c74440" class="dcg-svg-curve" paint-order="fill stroke markers" d=" M 0 246.6982115116758 L 0 246.6982115116758 L 14.2578125 232.6736872658308 L 54.78515625 192.5706343944439 L 66.01562500000001 181.99429110887576 L 75.87890625 173.09163665540106 L 84.86328125 165.36922110369426 L 93.359375 158.46100658036065 L 101.46484375 152.27206333616797 L 109.1796875 146.78147877272806 L 116.40625 142.0203401464205 L 123.33984375000001 137.82187935292598 L 129.8828125 134.20941578163263 L 136.1328125 131.08935697752622 L 142.1875 128.38597247757923 L 148.046875 126.07781167647431 L 153.7109375 124.14172216861647 L 159.27734375 122.52745490174823 L 164.74609375 121.2245777963019 L 170.1171875 120.22165705417399 L 175.390625 119.50640708563861 L 180.56640625 119.06583340981229 L 185.74218750000003 118.88537453005415 L 190.91796875 118.96548797219873 L 196.09375 119.30597062089089 L 201.26953125 119.905959234553 L 206.54296875 120.78258751368185 L 211.9140625 121.9483548004838 L 217.28515625000003 123.3863640069066 L 222.85156250000003 125.15973569145837 L 228.51562500000003 127.25465393551679 L 234.375 129.72335457985912 L 240.42968750000003 132.58805932634357 L 246.67968750000003 135.8691824390832 L 253.22265625 139.64367687309135 L 260.05859375 143.94183453315333 L 267.28515625 148.85887256276342 L 274.90234375 154.43064580697018 L 283.0078125 160.76416894359144 L 291.50390625 167.80854880554915 L 300.5859375 175.74416389495505 L 310.44921875 184.76617534354 L 321.58203125 195.3528982201047 L 335.35156250000006 208.85966667492087 L 379.98046875000006 252.95059638354417 L 390.91796875 263.1722968235737 L 400 271.307882240523" stroke-linecap="round" stroke-linejoin="round" stroke-miterlimit="10" stroke-width="2.5" stroke-opacity="0.9" stroke-dasharray=""/></g></g><g id="sketch-2c792e8e"><title>Expression 2</title><path fill="#2d70b3" stroke="none" paint-order="stroke fill markers" d="" fill-opacity="0.4"/><g><path fill="none" stroke="#2d70b3" class="dcg-svg-curve" paint-order="fill stroke markers" d=" M 0 90.20552889247915 L 0 90.20552889247915 L 5.761718750000001 97.37197656907438 L 11.621093750000002 104.25933906735048 L 17.675781250000004 110.97557940199641 L 23.828125 117.40670557529268 L 30.175781250000004 123.65059145006717 L 36.71875 129.69545314977228 L 43.5546875 135.61311807014982 L 50.58593750000001 141.3028513966022 L 57.91015625 146.8299692433335 L 65.52734375 152.1752740940382 L 73.2421875 157.20003227440634 L 81.0546875 161.9182247236964 L 88.96484375000001 166.34365664177088 L 97.0703125 170.5385167606781 L 105.37109375000001 174.5049660882275 L 113.86718750000001 178.2462501030787 L 122.65625000000001 181.80447854403903 L 131.73828125 185.17522841380278 L 141.11328125 188.3559777164891 L 150.78125000000003 191.34597229637706 L 160.83984375000003 194.17221091683103 L 171.38671875 196.85310033199474 L 182.421875 199.37864316705617 L 194.04296875000003 201.76085054851515 L 206.25000000000003 203.9894101456817 L 219.140625 206.0724285454289 L 232.91015625000003 208.02700577646533 L 247.55859374999997 209.83804726323118 L 263.28125000000006 211.51512468563018 L 280.27343750000006 213.06119816235062 L 298.73046875 214.47483267918403 L 318.9453125 215.75792829171883 L 341.40625 216.91675473466452 L 366.50390625000006 217.94467650897025 L 395.01953125000006 218.84511326846837 L 400 218.97831902697087" stroke-linecap="round" stroke-linejoin="round" stroke-miterlimit="10" stroke-width="2.5" stroke-opacity="0.9" stroke-dasharray=""/></g></g><g id="sketch-2c792e8e"><title>Expression 3</title><path fill="#6042a6" stroke="none" paint-order="stroke fill markers" d="" fill-opacity="0.4"/><g><path fill="none" stroke="#6042a6" class="dcg-svg-curve" paint-order="fill stroke markers" d=" M 0 246.6982115116758 L 0 246.6982115116758 L 14.2578125 232.6736872658308 L 54.78515625 192.5706343944439 L 66.01562500000001 181.99429110887576 L 75.87890625 173.09163665540106 L 84.86328125 165.36922110369426 L 85.78126885751787 164.60341366150115 L 93.84765625000001 168.91018630161238 L 102.05078125000001 172.95671853328892 L 110.44921875000001 176.7782125724987 L 119.14062500000001 180.41759066946295 L 128.02734375 183.83381749488976 L 137.20703125 187.0658288421755 L 146.77734375 190.14171352473195 L 156.73828125 193.05305436011557 L 167.08984375 195.79398223806177 L 177.92968750000003 198.38315380493012 L 189.2578125 200.81244488456014 L 201.171875 203.09436464431093 L 213.76953125000003 205.2361326327068 L 227.1484375 207.24086637763565 L 241.40625000000003 209.10871552309064 L 256.73828125 210.8482290939513 L 273.2421875 212.45228009818692 L 291.11328125 213.92201194019898 L 310.64453125000006 215.26138774122552 L 332.12890625 216.46858302215193 L 343.65234375 217.12858647197356 L 372.265625 245.52073226827855 L 384.47265625 257.1983194025379 L 394.82421875000006 266.7149434242655 L 400 271.307882240523" stroke-linecap="round" stroke-linejoin="round" stroke-miterlimit="10" stroke-width="2.5" stroke-opacity="0.9" stroke-dasharray=""/></g></g><g id="sketch-2c792e8e"><title>Expression 6</title><path fill="#fa7e19" stroke="none" paint-order="stroke fill markers" d="" fill-opacity="0.4"/><g><path fill="none" stroke="#fa7e19" class="dcg-svg-curve" paint-order="fill stroke markers" d=" M 0 246.6982115116758 L 0 246.6982115116758 L 14.2578125 232.6736872658308 L 54.78515625 192.5706343944439 L 66.01562500000001 181.99471716544952 L 71.19140625 177.4203698281039 L 74.70703125 174.69801096910135 L 77.734375 172.7298591748393 L 80.37109375 171.36180809548176 L 82.8125 170.42137699585402 L 85.05859375 169.8585965926322 L 87.109375 169.6121540354608 L 89.35546875 169.61554456430125 L 91.796875 169.89421549852952 L 94.53125 170.484282072887 L 97.75390625 171.4703561788217 L 101.75781250000001 172.99684492259294 L 108.49609375 175.9189402553826 L 117.67578125 179.8255725834269 L 126.5625 183.2908365505116 L 135.7421875 186.569240776952 L 145.21484375 189.65888496477663 L 155.078125 192.58721164725847 L 165.33203125 195.3477820258929 L 176.07421875 197.95910623823954 L 187.30468750000003 200.41247112339403 L 199.12109375 202.72018038360255 L 211.62109375000003 204.8891840176633 L 224.90234375000006 206.9222665991527 L 239.06249999999997 208.81918771028546 L 254.19921875000003 210.57778223667177 L 270.5078125 212.20399846288015 L 288.0859375 213.69066876077105 L 307.32421875 215.05126756800317 L 321.58203125 216.0978660807166 L 326.66015625000006 216.76953814288663 L 330.95703125 217.59960723472852 L 334.76562500000006 218.6002390463735 L 338.37890625 219.8304257141029 L 341.796875 221.28811873964418 L 345.1171875 223.01398638899326 L 348.73046875 225.24105408092836 L 352.73437500000006 228.08405936831787 L 357.32421875 231.74995871678428 L 362.59765625000006 236.37672790342913 L 369.43359375000006 242.79765731993976 L 389.45312500000006 261.8280701168753 L 399.21875 270.6223914864438 L 400 271.307882240523" stroke-linecap="round" stroke-linejoin="round" stroke-miterlimit="10" stroke-width="2.5" stroke-opacity="0.9" stroke-dasharray=""/></g></g></g><g id="labels-2c792e8e"/></g></svg>